name GIL04_fast2Moments.mot
datacolumns 7
datarows 54
range 0.10833324 0.54999989
endheader

                time	          RHipMoment	          LHipMoment	         RKneeMoment	         LKneeMoment	        RAnkleMoment	        LAnkleMoment	
          0.10833324	        560.80145264	       -333.10440063	        912.96807861	         80.13986206	         53.22566605	        -36.39925385	
          0.11666657	        539.78540039	       -316.70117188	        934.27349854	         85.85878754	        107.89198303	        -39.47734451	
          0.12499990	        558.75592041	       -297.50274658	        909.05340576	         91.70636749	        155.82095337	        -40.91017532	
          0.13333324	        591.48223877	       -274.12884521	        849.77185059	         97.27357483	        196.18289185	        -40.46567154	
          0.14166658	        562.59277344	       -245.35075378	        788.06909180	        102.01230621	        231.10295105	        -38.22630692	
          0.14999990	        505.14398193	       -210.71261597	        719.32360840	        105.40702057	        265.60034180	        -34.55170822	
          0.15833324	        440.93051147	       -171.04083252	        641.11206055	        107.13315582	        301.42590332	        -29.99431229	
          0.16666657	        345.62979126	       -128.67039490	        570.08148193	        107.15779877	        339.23529053	        -25.18499947	
          0.17499991	        272.97796631	        -87.00981903	        489.77618408	        105.65964508	        378.56280518	        -20.69002533	
          0.18333325	        239.21894836	        -49.63616943	        397.83865356	        102.84629059	        415.37960815	        -16.91212654	
          0.19166657	        208.19686890	        -19.20058250	        311.88882446	         98.75552368	        448.44854736	        -14.04790211	
          0.19999990	        192.39793396	          3.32211947	        227.15077209	         93.20154572	        479.33969116	        -12.10025120	
          0.20833324	        197.44210815	         18.68295860	        141.27851868	         85.91276550	        508.97012329	        -10.92926502	
          0.21666658	        209.22459412	         28.69227219	         63.33226395	         76.76817322	        536.87243652	        -10.31909084	
          0.22499990	        201.15580750	         35.22963715	          7.44595671	         65.99089050	        561.67480469	        -10.04973507	
          0.23333324	        182.48873901	         39.41532135	        -29.54765892	         54.21629333	        581.04406738	         -9.95796871	
          0.24166657	        212.59568787	         41.42867279	        -79.86380768	         42.38968658	        596.33959961	         -9.95737743	
          0.24999991	        176.75585938	         40.90126419	        -83.03315735	         31.53924179	        605.75921631	        -10.02490807	
          0.25833324	        151.18038940	         37.42909622	        -87.01771545	         22.48731804	        610.96624756	        -10.17424107	
          0.26666659	        153.74432373	         30.90136147	       -104.34667206	         15.59353542	        612.15637207	        -10.42381573	
          0.27499992	        144.04275513	         21.77103233	       -115.72674561	         10.62859154	        608.01458740	        -10.77437782	
          0.28333324	        113.78670502	         11.23783684	       -118.09394836	          6.83068895	        596.96038818	        -11.19963551	
          0.29166657	         68.26413727	          1.19193077	       -115.15244293	          3.10021544	        580.77465820	        -11.65585995	
          0.29999989	         24.13640594	         -6.29321909	       -116.78807068	         -1.73289955	        566.54730225	        -12.10660553	
          0.30833322	         -8.02444839	         -9.30223370	       -129.83534241	         -8.65314198	        563.70385742	        -12.54465485	
          0.31666657	        -15.50114441	         -5.99391413	       -158.91461182	        -18.22741699	        568.00036621	        -12.99380684	
          0.32499990	        -23.33997154	          5.39490032	       -187.54237366	        -30.49403000	        574.57257080	        -13.48810673	
          0.33333325	        -44.85732651	         25.85083961	       -207.64405823	        -45.05828094	        585.52789307	        -14.04027843	
          0.34166658	        -67.59540558	         54.98137665	       -225.82241821	        -61.36720276	        603.04681396	        -14.61537075	
          0.34999990	        -81.88713837	         91.06288910	       -248.73532104	        -78.96430206	        629.74829102	        -15.11977291	
          0.35833323	        -93.87073517	        131.62527466	       -275.15884399	        -97.62393951	        667.12054443	        -15.40824318	
          0.36666659	       -113.84053040	        173.62855530	       -299.53796387	       -117.34022522	        711.15710449	        -15.30826664	
          0.37499991	       -123.28759766	        213.55459595	       -333.01419067	       -138.24581909	        761.82861328	        -14.65838718	
          0.38333324	       -139.28993225	        248.20304871	       -367.47137451	       -160.45378113	        819.45056152	        -13.35111904	
          0.39166656	       -166.30838013	        275.89364624	       -399.51660156	       -183.87211609	        882.60131836	        -11.36714935	
          0.39999992	       -192.90043640	        296.78320313	       -432.52288818	       -208.07221985	        949.97650146	         -8.79157162	
          0.40833324	       -219.90980530	        312.21624756	       -465.22650146	       -232.29957581	       1023.78735352	         -5.80909538	
          0.41666657	       -281.84429932	        324.04251099	       -476.45330811	       -255.56575012	       1101.38964844	         -2.67630267	
          0.42499989	       -347.53286743	        334.25927734	       -479.33291626	       -276.71765137	       1179.42529297	          0.32506207	
          0.43333325	       -403.34881592	        344.28338623	       -479.58984375	       -294.36303711	       1256.16906738	          2.93776155	
          0.44166657	       -474.52267456	        353.60919189	       -462.65701294	       -306.66879272	       1327.45996094	          4.96908045	
          0.44999990	       -531.09722900	        359.02542114	       -443.83288574	       -311.25717163	       1389.37121582	          6.30872917	
          0.45833322	       -586.42376709	        355.18707275	       -416.89520264	       -305.45703125	       1439.56164551	          6.92301893	
          0.46666658	       -644.35778809	        336.01715088	       -380.30346680	       -286.92974854	       1475.45837402	          6.83199787	
          0.47499990	       -708.50805664	        296.27285767	       -332.76995850	       -254.53636169	       1493.21203613	          6.07314634	
          0.48333323	       -759.97363281	        233.34762573	       -285.17095947	       -209.21522522	       1491.80395508	          4.66501665	
          0.49166659	       -770.33038330	        149.42390442	       -251.02012634	       -154.57432556	       1469.08837891	          2.59748173	
          0.49999991	       -811.26757813	         52.94801712	       -192.44667053	        -96.84763336	       1422.39916992	         -0.14023872	
          0.50833321	       -807.77124023	        -42.04559708	       -149.58847046	        -43.76526260	       1354.13244629	         -3.49459553	
          0.51666653	       -784.37994385	       -119.46871948	       -110.74156952	         -2.50226355	       1268.06591797	         -7.28251410	
          0.52499992	       -791.86718750	       1135.01562500	        -48.78957748	       -504.67166138	       1162.91955566	        -81.56264496	
          0.53333324	       -747.24682617	       1847.05810547	         -8.43053913	       -731.56250000	       1040.07739258	       -151.82595825	
          0.54166657	       -649.18670654	        922.57470703	          9.40651321	       -232.17800903	        893.36981201	       -195.51547241	
          0.54999989	       -562.30706787	         31.57404327	         31.46074295	        319.49163818	        734.81072998	       -278.83102417	
